<?xml version="1.0" standalone="no"?>
<!DOCTYPE svg PUBLIC "-//W3C//DTD SVG 20010904//EN"
 "http://www.w3.org/TR/2001/REC-SVG-20010904/DTD/svg10.dtd">
<svg version="1.0" xmlns="http://www.w3.org/2000/svg"
 width="960.000000pt" height="960.000000pt" viewBox="0 0 960.000000 960.000000"
 preserveAspectRatio="xMidYMid meet">
<metadata>
Created by potrace 1.14, written by Peter Selinger 2001-2017
</metadata>
<g transform="translate(0.000000,960.000000) scale(0.100000,-0.100000)"
fill="#000000" stroke="none">
<path d="M1725 9593 c-147 -18 -352 -66 -470 -110 -72 -26 -290 -129 -309
-144 -6 -5 -45 -31 -86 -58 -305 -197 -570 -518 -717 -867 -46 -109 -105 -318
-119 -421 -3 -26 -10 -70 -14 -98 -5 -27 -9 -1420 -9 -3095 0 -2958 1 -3049
19 -3168 11 -68 22 -127 24 -131 3 -4 7 -21 10 -37 10 -54 53 -189 89 -276
126 -304 321 -563 578 -768 253 -202 588 -353 874 -394 22 -3 69 -10 105 -15
40 -6 1257 -9 3140 -8 l3075 2 104 22 c138 30 241 58 326 90 71 26 290 129
309 144 6 5 45 31 86 58 274 177 516 452 664 755 82 168 152 383 172 533 3 26
10 71 15 98 4 28 7 1436 6 3130 -3 3369 2 3094 -57 3324 -139 547 -517 1005
-1033 1255 -122 59 -332 128 -457 151 -52 9 -115 21 -140 25 -42 9 -6119 11
-6185 3z m4600 -2413 c184 -32 371 -81 369 -96 -1 -5 -5 -56 -8 -114 -4 -58
-9 -130 -11 -160 -2 -30 -6 -98 -10 -150 -3 -52 -8 -122 -10 -155 -3 -33 -7
-98 -10 -145 -3 -47 -8 -114 -11 -150 -3 -36 -7 -99 -9 -140 -2 -41 -6 -109
-9 -150 -3 -41 -8 -113 -12 -160 -3 -47 -7 -101 -9 -120 -1 -19 -3 -56 -4 -82
l-1 -48 -308 0 -307 0 0 491 c0 270 -3 495 -6 501 -11 18 -224 1 -346 -27
-234 -54 -441 -173 -623 -355 -82 -83 -93 -96 -161 -185 -160 -212 -304 -505
-411 -835 l-44 -135 0 -995 1 -995 475 0 475 0 0 -285 0 -285 -1215 0 -1215 0
0 282 c0 244 2 282 15 285 8 2 173 4 366 3 l351 0 0 1775 0 1775 -366 0 -366
0 0 283 c0 245 2 282 15 283 49 4 1282 3 1285 -1 1 -3 6 -32 10 -65 3 -33 8
-76 11 -95 10 -72 13 -97 20 -155 3 -33 8 -69 10 -80 2 -10 6 -49 9 -85 4 -36
8 -72 10 -80 2 -8 7 -42 10 -75 4 -33 9 -73 12 -90 2 -16 6 -48 9 -70 2 -22 6
-56 9 -75 7 -48 14 -104 21 -170 3 -30 7 -56 8 -58 2 -1 28 46 58 105 239 468
550 805 881 956 144 67 354 120 517 133 47 4 87 8 88 10 10 8 376 -6 437 -16z"/>
</g>
</svg>
