<svg id="Layer_1" data-name="Layer 1" xmlns="http://www.w3.org/2000/svg" xmlns:xlink="http://www.w3.org/1999/xlink" viewBox="0 0 480 132.47"><defs><linearGradient id="linear-gradient" x1="7.76" y1="124.71" x2="124.71" y2="7.76" gradientUnits="userSpaceOnUse"><stop offset="0" stop-color="#f70079"/><stop offset="1" stop-color="#f70024"/></linearGradient></defs><rect width="132.47" height="132.47" rx="26.49" style="fill:url(#linear-gradient)"/><path d="M40.07,99.35V91.41h10.1V42.47H40.07V34.53h18L60,49.86a34.58,34.58,0,0,1,9.11-12.37q5.35-4.38,14.16-4.37a25.89,25.89,0,0,1,4.83.4c1.42.26,2.87.6,4.34,1l-3,9.23c-1.36-.36-2.59-.64-3.7-.83a23.92,23.92,0,0,0-3.81-.27A17.57,17.57,0,0,0,69.06,48q-5.36,5.29-8.55,16V91.41H73.68v7.94Zm42.35-42.9V42.35l1-7.82h8.92L90.92,56.45Z" style="fill:#fff"/><path d="M172.21,92.44V39.63h10.54V50.37l-1-1.56a13.14,13.14,0,0,1,5.66-7.57A18.21,18.21,0,0,1,196.81,39H200V49h-4.59a11.86,11.86,0,0,0-8.84,3.42q-3.36,3.42-3.36,9.57V92.44Z"/><path d="M223.36,93.62a22.37,22.37,0,0,1-9.42-1.86,14.56,14.56,0,0,1-6.3-5.27,14.23,14.23,0,0,1-2.24-8A14.81,14.81,0,0,1,213.16,65a28.54,28.54,0,0,1,10.1-3.32l18.35-3v8.78l-16.2,2.74Q221,71,219,73a6.87,6.87,0,0,0-2.05,5.07A6.1,6.1,0,0,0,219.21,83a9,9,0,0,0,5.91,1.91,15.14,15.14,0,0,0,7.76-2,14.13,14.13,0,0,0,7.17-12.49V56.91a7.89,7.89,0,0,0-2.93-6.3,11.49,11.49,0,0,0-7.71-2.49,13,13,0,0,0-7.56,2.25,13.32,13.32,0,0,0-4.84,6l-9.27-4.58a18.84,18.84,0,0,1,4.83-6.93,23.17,23.17,0,0,1,7.71-4.69,26.92,26.92,0,0,1,9.52-1.66,25.1,25.1,0,0,1,11.08,2.34,18.19,18.19,0,0,1,7.52,6.49,17.33,17.33,0,0,1,2.68,9.62V92.44H240.54V83l2.15.2A20.27,20.27,0,0,1,238,88.73a20.61,20.61,0,0,1-6.54,3.62A25,25,0,0,1,223.36,93.62Z"/><path d="M264,92.44V39.63h10.54V50l-1.27-1.37a14.8,14.8,0,0,1,6.25-7.56,18.86,18.86,0,0,1,10-2.59A20.66,20.66,0,0,1,299.79,41a18.13,18.13,0,0,1,7,7,20.66,20.66,0,0,1,2.54,10.34V92.44h-11V61.3a14.23,14.23,0,0,0-1.46-6.68,10.82,10.82,0,0,0-4.1-4.35,11.69,11.69,0,0,0-6.06-1.56,11.91,11.91,0,0,0-6.1,1.56,10.67,10.67,0,0,0-4.15,4.35A14.23,14.23,0,0,0,275,61.3V92.44Z"/><path d="M324.88,113.92a21.53,21.53,0,0,1-3.85-.34,15.31,15.31,0,0,1-3.47-1v-9.47a27.71,27.71,0,0,0,2.83.54,22.58,22.58,0,0,0,3.22.25q4.59,0,6.79-2a17.43,17.43,0,0,0,4-6.1l3.52-8-.2,9.37-22.84-57.5h11.81l16.89,44h-4l16.79-44h11.91L344.89,98.2a32.83,32.83,0,0,1-4.63,8.25,19.94,19.94,0,0,1-6.54,5.52A19,19,0,0,1,324.88,113.92Z"/><path d="M399.46,93.62a26.37,26.37,0,0,1-14-3.67A25.72,25.72,0,0,1,376,80a29.08,29.08,0,0,1-3.42-14.11A28.64,28.64,0,0,1,376,51.74,25.68,25.68,0,0,1,385.36,42a25.17,25.17,0,0,1,13.23-3.56,26.47,26.47,0,0,1,10.73,2,22.92,22.92,0,0,1,7.91,5.61,25.2,25.2,0,0,1,4.93,8.15A27.77,27.77,0,0,1,423.87,64c0,.84,0,1.72-.1,2.63a13.94,13.94,0,0,1-.39,2.54H381.31V60.42H417l-5.18,4a14.89,14.89,0,0,0-.68-8.55,12.91,12.91,0,0,0-4.88-6,13.72,13.72,0,0,0-7.71-2.2,14,14,0,0,0-7.72,2.2,14.25,14.25,0,0,0-5.27,6.3A20.18,20.18,0,0,0,384.14,66a17.13,17.13,0,0,0,1.51,9.37,15,15,0,0,0,5.66,6.25,15.43,15.43,0,0,0,8.25,2.24,14.78,14.78,0,0,0,8.2-2.14,17,17,0,0,0,5.37-5.57l9,4.49a18.44,18.44,0,0,1-4.83,6.64,24.53,24.53,0,0,1-7.81,4.64A28.19,28.19,0,0,1,399.46,93.62Z"/><path d="M434.61,92.44V18.55h11V50l-1.76-1.37a14.8,14.8,0,0,1,6.25-7.56,18.86,18.86,0,0,1,10-2.59A20.66,20.66,0,0,1,470.43,41a18.13,18.13,0,0,1,7,7A20.48,20.48,0,0,1,480,58.28V92.44H469V61.3a14.11,14.11,0,0,0-1.47-6.68,10.69,10.69,0,0,0-4.1-4.35,12.41,12.41,0,0,0-12,0,11,11,0,0,0-4.2,4.35,13.76,13.76,0,0,0-1.51,6.68V92.44Z"/></svg>