<svg id="Layer_1" data-name="Layer 1" xmlns="http://www.w3.org/2000/svg" xmlns:xlink="http://www.w3.org/1999/xlink" viewBox="0 0 480 480"><defs><linearGradient id="linear-gradient" x1="28.12" y1="451.88" x2="451.88" y2="28.12" gradientUnits="userSpaceOnUse"><stop offset="0" stop-color="#f70079"/><stop offset="1" stop-color="#f70024"/></linearGradient></defs><rect width="480" height="480" rx="96" style="fill:url(#linear-gradient)"/><path d="M145.2,360V331.23h36.58V153.9H145.2V125.13h65.13l6.92,55.54q13.6-29,33-44.84T301.56,120a94.91,94.91,0,0,1,17.51,1.45q7.69,1.45,15.73,3.68l-10.93,33.46a136.86,136.86,0,0,0-13.39-3,85.85,85.85,0,0,0-13.83-1q-27,0-46.39,19.19t-31,58v99.48H267V360ZM298.66,204.53V153.45l3.79-28.32H334.8l-5.36,79.4Z" style="fill:#fff"/></svg>